<?xml version="1.0" encoding="UTF-8"?><svg id="a" xmlns="http://www.w3.org/2000/svg" viewBox="0 0 109.38 34.51"><defs><style>.d{fill:#fff;}</style></defs><g id="b"><path class="d" d="M16.07,16.6v7.28c-.79,1.44-2.03,2.59-3.53,3.25-1.5,.7-3.19,.89-4.81,.56-3.08-.57-5.41-3.11-5.72-6.23-.19-1.44-.08-2.9,.32-4.29,.39-1.36,1.16-2.57,2.22-3.5,1.06-.96,2.44-1.48,3.87-1.45,2.71,0,4.71,.63,6.02,1.89,.32,.3,.6,.63,.86,.98,.19,.29,.35,.6,.51,.91l.28,.6Zm1.75-13.34h-1.75V14.75c-.61-.85-1.34-1.6-2.17-2.24-1.5-1.24-3.38-1.93-5.32-1.96-1.72-.04-3.41,.47-4.81,1.47-1.34,.97-2.37,2.31-2.97,3.85C.17,17.36-.09,18.98,.03,20.59c.08,1.39,.45,2.75,1.09,3.99,.53,1.01,1.26,1.91,2.15,2.62,1.57,1.33,3.54,2.08,5.6,2.13,1.48-.03,2.92-.49,4.15-1.33,1.2-.71,2.24-1.66,3.06-2.79v3.6h1.75V3.27Zm15.57,25.08c-1.25,.58-2.61,.88-3.99,.89-1.26,.01-2.51-.24-3.66-.75-1.08-.48-2.06-1.17-2.89-2.01-1.71-1.73-2.64-4.08-2.59-6.51v-.07c-.04-2.45,.91-4.8,2.63-6.54,1.69-1.83,4.09-2.85,6.58-2.8,2.47-.04,4.85,.96,6.55,2.76,.28,.28,.54,.59,.77,.91v-3.26h1.72V28.82h-1.72v-3.33c-.85,1.24-2.03,2.23-3.4,2.85Zm-3.92-.72c1.01,0,2-.2,2.92-.61,.87-.39,1.66-.94,2.33-1.63,1.36-1.48,2.08-3.42,2.03-5.42v-.07c.05-2.04-.7-4.02-2.1-5.5-2.78-2.9-7.38-3-10.28-.22-.07,.07-.15,.14-.22,.22-1.36,1.48-2.08,3.42-2.03,5.42v.07c-.05,2.04,.7,4.02,2.1,5.5,1.35,1.46,3.26,2.28,5.25,2.24Zm11.62,6.33c1.08,.36,2.21,.55,3.34,.54,1.23-.07,2.38-.61,3.22-1.51,1.13-1.11,1.95-2.51,2.36-4.04l7.6-17.99h-1.96l-6.44,15.89-7.35-15.89h-2l8.61,17.78c-.09,.17-.17,.34-.23,.53-.13,.33-.24,.58-.33,.77-.09,.19-.23,.45-.4,.79-.14,.3-.33,.57-.56,.81-.2,.2-.43,.42-.68,.65-.64,.49-1.44,.73-2.24,.67-1.01,0-2.01-.22-2.94-.63v1.65ZM63,3.27h-1.75V21.15c.02,.36,.03,.72,.02,1.09-.01,.44,0,.89,.05,1.33,.04,.47,.11,.94,.21,1.4,.31,1.61,1.42,2.96,2.94,3.57,1.17,.48,2.46,.56,3.68,.24,.23-.05,.4-.08,.49-.1,.21-.1,.44-.17,.67-.21l-.07-1.58c-2.38,.89-4.15,.68-5.32-.63-.45-.45-.74-1.05-.82-1.68-.06-.58-.1-.97-.12-1.16-.03-.41-.03-.82,0-1.23,.02-.63,.04-.98,.04-1.05V3.27Zm29.78,24.74c-1.35,.77-2.87,1.19-4.43,1.22-1.31,.03-2.61-.23-3.82-.75-1.08-.48-2.06-1.17-2.89-2.01-1.71-1.73-2.64-4.08-2.59-6.51v-.07c-.04-2.45,.91-4.8,2.62-6.54,1.69-1.83,4.09-2.85,6.58-2.8,1.34,.04,2.64,.49,3.71,1.3,.73,.49,1.37,1.1,1.91,1.8,.63,.87,1.09,1.85,1.36,2.89,.38,1.32,.55,2.69,.51,4.06h-14.81c.11,1.79,.84,3.49,2.07,4.8,1.26,1.42,3.07,2.24,4.97,2.24,1.73,.05,3.43-.51,4.79-1.58v1.95Zm-4.59-15.85c-1.99-.04-3.9,.78-5.25,2.24-1.17,1.28-1.87,2.92-2,4.66h13.02c-.08-.7-.23-1.39-.46-2.07-.22-.79-.55-1.55-.98-2.26-.29-.48-.65-.91-1.05-1.3-.35-.31-.75-.55-1.19-.72-.65-.32-1.37-.51-2.09-.56Zm21.17,.42c-1.73-.03-3.4,.6-4.69,1.75-.68,.65-1.24,1.4-1.66,2.24-.59,1.12-1,2.32-1.21,3.57v8.68h-1.71V10.97h1.71v4.93c1.28-3.06,4.24-5.09,7.56-5.18v1.86Z"/></g><g id="c"><circle class="d" cx="74.06" cy="8.27" r="1.75"/></g><rect class="d" x="73.2" y="11.39" width="1.71" height="17.85"/><rect class="d" x="73.56" width="1" height="5"/><rect class="d" x="67.82" y="5.77" width="1" height="5" transform="translate(76.59 -60.05) rotate(90)"/><rect class="d" x="78.26" y="6.77" width="1" height="3" transform="translate(87.03 -70.49) rotate(90)"/><rect class="d" x="76.76" y="3.59" width="1" height="2.71" transform="translate(26.12 -53.18) rotate(45)"/><rect class="d" x="70.14" y="10.14" width="1" height="2.83" transform="translate(28.86 -46.57) rotate(45)"/><rect class="d" x="76.51" y="10.29" width="1" height="1.79" transform="translate(139.37 -35.35) rotate(135)"/><rect class="d" x="70.63" y="4.41" width="1" height="1.79" transform="translate(125.18 -41.24) rotate(135)"/></svg>