<?xml version="1.0" standalone="no"?>
<!DOCTYPE svg PUBLIC "-//W3C//DTD SVG 20010904//EN"
 "http://www.w3.org/TR/2001/REC-SVG-20010904/DTD/svg10.dtd">
<svg version="1.0" xmlns="http://www.w3.org/2000/svg"
 width="700.000000pt" height="700.000000pt" viewBox="0 0 700.000000 700.000000"
 preserveAspectRatio="xMidYMid meet">
<metadata>
Created by potrace 1.14, written by Peter Selinger 2001-2017
</metadata>
<g transform="translate(0.000000,700.000000) scale(0.100000,-0.100000)"
fill="#000000" stroke="none">
<path d="M386 6984 c-132 -32 -260 -131 -323 -250 -68 -127 -63 124 -63 -3229
0 -3353 -5 -3102 63 -3229 41 -78 125 -162 203 -203 124 -66 45 -63 1596 -63
l1408 0 2 987 3 988 198 3 197 2 0 -990 0 -990 1438 0 c1584 0 1502 -3 1626
63 78 41 162 125 203 203 68 127 63 -124 63 3229 0 3353 5 3102 -63 3229 -41
78 -125 162 -203 203 -127 68 125 63 -3239 62 -2599 -1 -3059 -3 -3109 -15z
m3284 -1229 l0 -995 -197 2 -198 3 -3 993 -2 992 200 0 200 0 0 -995z m1215
-1105 l-380 -380 -140 140 -140 140 380 380 380 380 140 -140 140 -140 -380
-380z m-2432 132 l247 -247 -143 -143 -142 -142 -250 250 -250 250 140 140
c77 77 142 140 145 140 3 0 117 -111 253 -248z m1164 -638 c253 -52 462 -250
528 -499 84 -316 -68 -652 -360 -798 -111 -56 -182 -72 -320 -71 -101 1 -132
5 -200 27 -179 59 -328 185 -408 346 -61 121 -81 214 -75 350 11 255 154 474
383 587 146 72 293 91 452 58z m-1427 -679 l0 -195 -995 0 -995 0 0 195 0 195
995 0 995 0 0 -195z m3750 0 l0 -195 -600 0 -600 0 0 195 0 195 600 0 600 0 0
-195z m-3427 -913 l137 -137 -395 -395 -395 -395 -140 140 -140 140 392 392
c216 216 395 393 398 393 3 0 67 -62 143 -138z m2270 -103 c136 -132 247 -246
247 -253 0 -14 -261 -276 -275 -276 -5 0 -121 111 -257 247 l-248 248 137 137
c76 76 140 138 144 138 3 0 116 -108 252 -241z"/>
</g>
</svg>
